<?xml version="1.0" encoding="utf-8"?>
<!-- Generator: Adobe Illustrator 16.0.0, SVG Export Plug-In . SVG Version: 6.00 Build 0)  -->
<!DOCTYPE svg PUBLIC "-//W3C//DTD SVG 1.1//EN" "http://www.w3.org/Graphics/SVG/1.1/DTD/svg11.dtd">
<svg version="1.1" id="Capa_1" xmlns="http://www.w3.org/2000/svg" xmlns:xlink="http://www.w3.org/1999/xlink" x="0px" y="0px"
	 width="1094px" height="1071.809px" viewBox="412.5 0 1094 1071.809" enable-background="new 412.5 0 1094 1071.809"
	 xml:space="preserve">
<g opacity="0.2">
	<path d="M1415.697,390.943c-0.933-3.421-2.177-6.532-3.11-9.953c-0.933-2.799-1.555-5.288-2.488-8.087
		c-18.352-8.087-35.147-19.285-47.9-32.348c-24.571-24.572-41.367-60.653-44.479-95.8c-5.287-9.02-10.886-17.729-16.796-26.127
		c-4.977-6.22-9.953-12.13-15.241-18.04c-7.465-0.933-14.618-1.867-22.084-2.8c-50.077-20.217-98.287-44.789-147.743-66.873
		c-20.218-7.775-40.746-14.308-61.586-18.662c-25.505-1.555-51.321-0.312-77.138,2.488
		c-63.763,10.576-125.971,28.304-187.868,45.723c-13.687,3.732-27.372,5.599-41.057,5.287
		c-22.706,22.396-44.79,45.723-68.118,67.807c-26.127,24.883-52.255,49.455-75.583,76.827c-5.598,8.397-10.886,17.106-15.862,26.127
		c-11.198,32.037-18.352,65.318-23.95,98.599c-9.332,83.67-8.398,167.651-13.375,251.631c-0.311,4.666-0.622,9.331-1.244,13.997
		c4.354,5.287,8.087,10.886,11.508,16.796c11.198,17.729,17.107,36.703,18.04,56.92c4.666,20.218,3.732,40.746-2.799,60.964
		c-7.154,48.833-22.706,93.934-41.368,138.724c-4.666,11.508-9.332,23.328-13.997,34.836c27.994,2.179,55.676,8.398,83.358,13.997
		c15.863-13.374,32.037-26.438,50.389-35.77c48.211-23.95,97.977-32.659,150.854-20.528c40.746,9.331,71.228,32.659,102.954,58.165
		c5.598,4.665,11.198,9.33,16.485,14.307c26.438,1.556,52.877,0.934,79.315-1.865c76.516-13.063,151.477-39.502,223.015-68.74
		c30.482-13.375,60.965-28.615,89.579-46.033c3.423-11.198,7.776-21.772,13.997-30.793c14.931-23.328,32.971-43.235,50.7-64.075
		c11.508-18.351,20.217-38.879,29.859-58.164c9.643-19.595,19.907-38.88,29.549-58.476c3.11-9.331,5.91-18.973,8.087-28.926
		c3.11-48.212-2.177-97.355-8.398-145.256C1434.671,487.677,1425.962,439.155,1415.697,390.943z"/>
	<g>
		<path d="M490.044,1071.809l69.362-246.653c-44.479-75.895-68.118-162.053-68.118-251.01
			c0-273.093,222.082-495.175,495.175-495.175c273.093,0,495.175,222.082,495.175,495.175
			c0,273.094-222.082,495.176-495.175,495.176c-84.914,0-168.272-21.773-241.989-63.142L490.044,1071.809z M757.227,916.289
			l15.241,9.331c64.385,39.191,138.102,60.03,213.995,60.03c226.748,0,411.194-184.446,411.194-411.194
			c0-226.748-184.446-411.194-411.194-411.194S575.269,347.709,575.269,574.146c0,79.004,22.395,155.831,65.007,221.771
			l10.265,15.863l-40.124,142.146L757.227,916.289z"/>
		<path d="M847.428,343.976l-32.349-1.866c-9.953-0.622-19.906,2.799-27.682,9.331c-15.552,13.375-40.436,39.813-48.211,73.717
			c-11.508,50.699,6.221,112.907,51.943,175.114c45.723,62.208,130.636,161.741,280.869,204.354
			c48.522,13.686,86.469,4.354,116.018-14.308c23.327-14.93,39.191-38.88,45.101-65.941l4.977-23.949
			c1.556-7.466-2.177-15.241-9.331-18.662l-108.553-50.078c-7.154-3.11-15.553-1.243-20.218,4.977l-42.302,55.677
			c-3.109,4.044-8.709,5.909-13.686,4.044c-29.238-10.265-126.904-51.322-180.714-154.588c-2.177-4.354-1.866-9.952,1.555-13.685
			l40.747-46.967c4.043-4.666,5.287-11.508,2.799-17.418L861.735,354.24C859.248,348.02,853.649,344.287,847.428,343.976z"/>
	</g>
</g>
<g>
	<path fill="#1BD741" d="M1346.161,311.803c-0.933-3.421-2.177-6.532-3.11-9.953c-0.933-2.799-1.555-5.288-2.488-8.087
		c-18.352-8.087-35.147-19.285-47.9-32.348c-24.571-24.572-41.367-60.653-44.479-95.8c-5.287-9.02-10.886-17.729-16.796-26.127
		c-4.977-6.22-9.953-12.13-15.241-18.04c-7.465-0.933-14.618-1.867-22.084-2.8c-50.077-20.217-98.287-44.789-147.743-66.873
		c-20.218-7.775-40.746-14.308-61.586-18.662c-25.505-1.555-51.321-0.312-77.138,2.488
		c-63.763,10.576-125.971,28.304-187.868,45.723c-13.687,3.732-27.372,5.599-41.057,5.287
		c-22.706,22.396-44.79,45.723-68.118,67.807c-26.127,24.883-52.255,49.455-75.583,76.827c-5.598,8.397-10.886,17.106-15.862,26.127
		c-11.198,32.037-18.352,65.318-23.95,98.599c-9.332,83.67-8.398,167.651-13.375,251.631c-0.311,4.666-0.622,9.331-1.244,13.997
		c4.354,5.287,8.087,10.886,11.508,16.796c11.198,17.729,17.107,36.703,18.04,56.92c4.666,20.218,3.732,40.746-2.799,60.964
		c-7.154,48.833-22.706,93.934-41.368,138.724c-4.666,11.508-9.332,23.328-13.997,34.836c27.994,2.179,55.676,8.398,83.358,13.997
		c15.863-13.374,32.037-26.438,50.389-35.77c48.211-23.95,97.977-32.659,150.854-20.528c40.746,9.331,71.228,32.659,102.954,58.165
		c5.598,4.665,11.198,9.33,16.485,14.307c26.438,1.556,52.877,0.934,79.315-1.865c76.516-13.063,151.477-39.502,223.015-68.74
		c30.482-13.375,60.965-28.615,89.579-46.033c3.423-11.198,7.776-21.772,13.997-30.793c14.931-23.328,32.971-43.235,50.7-64.075
		c11.508-18.351,20.217-38.879,29.859-58.164c9.643-19.595,19.907-38.88,29.549-58.476c3.11-9.331,5.91-18.973,8.087-28.926
		c3.11-48.212-2.177-97.355-8.398-145.256C1365.135,408.537,1356.426,360.015,1346.161,311.803z"/>
	<g>
		<path fill="#FFFFFF" d="M420.508,992.669l69.362-246.653c-44.479-75.895-68.118-162.053-68.118-251.01
			c0-273.093,222.082-495.175,495.175-495.175c273.093,0,495.175,222.082,495.175,495.175
			c0,273.094-222.082,495.176-495.175,495.176c-84.914,0-168.272-21.773-241.989-63.142L420.508,992.669z M687.69,837.15
			l15.241,9.331c64.385,39.191,138.102,60.03,213.995,60.03c226.748,0,411.194-184.446,411.194-411.194
			c0-226.748-184.446-411.194-411.194-411.194S505.732,268.569,505.732,495.006c0,79.004,22.395,155.831,65.007,221.771
			l10.265,15.863L540.88,874.786L687.69,837.15z"/>
		<path fill="#FFFFFF" d="M777.892,264.836l-32.349-1.866c-9.953-0.622-19.906,2.799-27.682,9.331
			c-15.552,13.375-40.436,39.813-48.211,73.717c-11.508,50.699,6.221,112.907,51.943,175.115
			c45.723,62.208,130.636,161.741,280.869,204.353c48.522,13.686,86.469,4.354,116.018-14.308
			c23.327-14.93,39.191-38.88,45.101-65.941l4.977-23.949c1.556-7.466-2.177-15.241-9.331-18.662l-108.553-50.078
			c-7.154-3.11-15.553-1.243-20.218,4.977l-42.302,55.677c-3.109,4.044-8.709,5.909-13.686,4.044
			c-29.238-10.265-126.904-51.322-180.714-154.587c-2.177-4.354-1.866-9.953,1.555-13.686l40.747-46.967
			c4.043-4.666,5.287-11.508,2.799-17.418l-46.657-109.486C789.711,268.881,784.113,265.148,777.892,264.836z"/>
	</g>
</g>
</svg>
