<svg width="493" height="80" viewBox="0 0 493 80" fill="none" xmlns="http://www.w3.org/2000/svg">
<path d="M45.2631 49.6667H61.4902L60.9595 46.0018H49.4957V41.5376H57.2205V37.8358H49.4957V34.0234H60.6881L61.231 30.3586H45.2754V49.6667H45.2631ZM21.2865 49.6544H25.5068V41.0949H35.4158V49.6544H39.636V30.3463H35.4158V37.3439H25.5191V30.334H21.2988V49.6421L21.2865 49.6544ZM0 34.1095H6.46616V49.6421H10.6988V34.1095H17.1649V30.334H0.0123426V34.1095H0Z" fill="black"/>
<path d="M257.395 6.19886C257.395 6.19886 252.595 8.10507 247.017 14.2295C241.415 20.3786 238.182 27.2533 240.588 29.0734C241.513 29.7621 243.636 29.8851 247.511 26.417C250.534 23.7237 253.607 20.1818 255.692 15.115C258.185 9.05203 257.395 6.26035 257.395 6.19886ZM287.924 17.2303C281.73 14.0574 277.201 10.1958 272.487 7.78532C267.995 5.48557 265.083 4.52631 261.443 5.00594C260.838 5.09203 259.949 5.37488 259.949 5.37488C259.949 5.37488 261.825 11.7453 254.372 22.457C246.82 33.304 239.983 33.2425 238.034 30.254C235.998 27.1057 238.626 20.6861 243.019 14.9797C247.622 9.01514 255.704 4.05898 255.704 4.05898C255.704 4.05898 253.125 2.48482 246.795 6.06358C240.625 9.53166 229.976 17.8329 220.128 31.8159C210.281 45.7989 208.307 53.4975 206.887 59.5482C205.468 65.6112 206.764 72.0923 213.502 72.0923C220.252 72.0923 228.088 61.8479 230.296 58.2815C234.406 51.6528 237.096 41.4699 231.493 42.8719C228.729 43.5606 226.496 46.6105 225.089 49.5375C223.645 52.5506 223.053 55.4283 223.053 55.4283C223.053 55.4283 220.721 56.2523 217.586 58.6012C214.452 60.9379 212.403 63.1638 212.403 63.1638C212.403 63.1638 212.428 58.3184 216.303 50.4845C220.178 42.6505 227.285 39.0718 231.308 38.7274C234.936 38.4323 239.663 41.5068 235.652 52.8334C231.654 64.1723 219.844 77.9093 207.443 78.0815C195.991 78.2414 188.513 63.6804 204.432 38.2847C222.053 10.1958 242.747 1.58706 249.46 0.627801C256.173 -0.331454 258.358 2.6201 258.358 2.6201C258.358 2.6201 263.985 0.0374926 271.129 0.51712C279.336 1.07054 285.666 6.85066 294.032 10.9213C291.861 12.9997 289.788 15.1765 287.912 17.2057M324.747 7.76072C319.07 11.3887 311.197 14.6846 303.645 13.959C301.733 15.9267 299.684 18.2141 297.636 20.6984C310.741 23.281 322.217 15.1888 328.313 8.30184C332.126 4.00979 334.014 0.160473 334.014 0.160473C334.014 0.160473 330.374 4.14507 324.747 7.74843M307.298 44.5322C307.458 44.237 307.532 43.991 307.532 43.991C307.532 43.991 307.384 42.8965 306.335 42.8473C305.089 42.7858 303.386 43.0318 298.919 47.951C294.477 52.8457 291.774 57.1132 289.43 61.3683C286.875 66.017 285.839 69.4851 287.307 70.3829C287.714 70.6411 288.344 70.6657 288.85 70.5427C289.849 70.3091 290.972 69.3744 292.687 67.3944C293.49 66.472 294.378 65.1561 295.452 63.6927C298.401 59.6835 305.83 47.0779 307.298 44.5322ZM260.924 49.8941C261.665 47.951 262.615 44.1386 260.653 42.6505C258.53 41.0641 253.138 44.7904 253.101 48.6151C253.064 52.526 256.901 54.2969 257.827 54.5429C258.358 54.6904 258.53 54.6658 258.789 54.2477C258.95 53.9771 260.184 51.8496 260.937 49.8941M256.852 57.0148C256.704 56.9656 254.964 56.1662 253.138 54.6535C251.324 53.1409 250.411 51.4191 250.337 51.2838C250.263 51.1609 250.189 51.2592 250.102 51.3699C250.016 51.4806 249.695 51.7635 246.807 55.9817C243.92 60.2 239.502 68.8948 243.513 70.3829C246.079 71.3298 250.337 66.8533 252.681 63.8894C254.841 61.1347 256.864 57.6297 256.975 57.3714C257.099 57.1132 256.988 57.0517 256.852 57.0025M302.251 67.0624C301.165 68.7964 299.931 72.1169 303.522 70.0508C307.89 67.5297 314.122 58.1216 314.122 58.1216H316.936C316.936 58.1216 313.221 63.9755 308.372 69.3129C303.941 74.2076 298.537 78.6472 294.724 78.2045C290.281 77.688 291.676 71.8709 291.676 71.8709C291.676 71.8709 285.283 78.6226 280.903 78.143C274.955 77.4912 276.769 70.1615 276.769 70.1615C276.769 70.1615 270.044 78.4012 265.465 78.1307C258.284 77.7248 260.085 68.9809 262.084 62.881C263.158 59.5974 264.145 57.0271 264.145 57.0271C264.145 57.0271 263.429 57.2115 261.899 57.4329C261.097 57.5436 259.641 57.6297 259.641 57.6297C259.641 57.6297 256.655 62.8933 254.261 66.0539C251.867 69.2268 241.699 80.1107 235.714 77.9216C230.185 75.9047 232.012 67.4682 235.232 60.7534C239.934 50.9764 253.15 36.9196 260.776 38.7643C268.686 40.6828 260.961 55.0471 260.961 55.0471C260.961 55.0471 260.961 55.0963 261.048 55.1332C261.208 55.1946 261.615 55.2438 262.566 55.0471C264.083 54.7519 265.453 54.1862 265.453 54.1862C265.453 54.1862 273.4 37.596 282.174 26.7491C290.947 15.9021 308.458 -2.77878 315.331 1.74693C317.01 2.86607 316.244 6.69079 313.986 11.3272C312.987 11.6469 311.95 11.9175 310.889 12.1389C312.407 9.39638 313.406 7.08433 313.702 5.47327C314.739 -0.13468 301.609 11.6838 292.219 24.4001C282.828 37.1164 277.201 48.6274 277.201 48.6274C277.201 48.6274 279.089 47.5575 282.038 45.1963C285.123 42.7243 289.356 38.8504 293.958 34.1156C297.056 30.9304 300.696 26.9212 304.102 22.4447C305.126 22.3955 306.113 22.2971 307.088 22.1373C303.287 27.2287 299.289 31.8897 295.896 35.3209C292.157 39.0964 288.097 43.1548 284.58 46.1063C278.978 50.7919 274.659 53.4606 274.659 53.4606C274.659 53.4606 266.453 69.9524 270.92 71.0224C273.548 71.6496 278.731 63.6927 278.731 63.6927C278.731 63.6927 285.493 53.4114 289.565 48.7873C295.131 42.4784 299.919 38.8381 304.694 38.7643C307.483 38.7151 309.124 41.679 309.124 41.679L310.432 39.6498H318.503C318.503 39.6498 303.423 65.1439 302.226 67.0624M324.734 7.73613C319.058 11.3641 311.185 14.66 303.633 13.9344C301.72 15.9021 299.672 18.1895 297.623 20.6738C310.728 23.2564 322.205 15.1642 328.301 8.27725C332.114 3.9852 334.002 0.135876 334.002 0.135876C334.002 0.135876 330.361 4.12047 324.734 7.72383M211.392 20.231H203.716L199.372 27.2164H207.048L211.392 20.231ZM175.038 44.4215C178.308 39.9573 187.316 24.3263 187.316 24.3263C187.316 24.3263 187.168 23.2318 186.119 23.1826C184.873 23.1211 182.812 23.5392 178.666 28.6922C174.52 33.8451 171.324 37.9527 168.991 42.2201C166.425 46.8688 165.314 50.1647 166.783 51.0502C167.19 51.2961 167.819 51.333 168.325 51.21C169.288 50.9764 170.534 50.0171 172.249 48.0371C173.064 47.1148 173.977 45.8727 175.05 44.4215M133.859 23.281C131.737 21.6822 126.344 25.4209 126.307 29.2333C126.283 33.1441 131.182 34.2632 131.811 34.3001C131.811 34.3001 132.366 34.4477 132.588 33.9804C132.724 33.6852 133.391 32.4677 134.143 30.5246C134.884 28.5815 135.834 24.7691 133.859 23.281ZM130.663 36.7597C130.515 36.7105 128.492 36.1202 126.505 34.8535C124.518 33.5868 123.605 31.7052 123.531 31.5699C123.457 31.4469 123.37 31.5453 123.296 31.656C123.21 31.7667 122.79 32.3078 119.903 36.5261C117.015 40.7443 112.733 49.3776 116.744 50.8657C119.311 51.8127 123.617 47.3238 125.949 44.36C128.109 41.6052 130.688 37.3624 130.799 37.1164C130.898 36.8581 130.799 36.7966 130.651 36.7597M193.375 39.3546H196.189C196.189 39.3546 182.096 59.6466 174.125 58.7242C169.682 58.2077 171.003 52.735 171.003 52.735C171.003 52.735 164.746 60.0155 159.033 58.5643C153.826 57.2361 157.194 48.6151 157.194 48.6151C156.602 48.8488 145.348 61.4913 137.438 58.466C129.158 55.2807 133.452 44.692 135.032 41.5191C136.364 38.8381 137.845 36.2186 137.845 36.2186C137.845 36.2186 136.574 36.5753 135.784 36.7597C134.995 36.9442 133.798 37.1656 133.798 37.1656C133.798 37.1656 129.886 43.5114 127.492 46.672C125.098 49.845 114.93 60.7042 108.945 58.5397C102.96 56.363 104.441 48.0248 107.81 41.3838C113.264 30.623 126.221 17.4025 134.02 19.3948C141.893 21.3994 135.377 34.1402 135.377 34.1402C135.377 34.1402 136.944 34.337 140.696 31.7913C146.113 28.1141 153.246 18.2264 160.97 19.3825C164.598 19.9236 167.979 23.6376 163.352 30.6845C161.871 32.9473 159.391 34.9765 157.478 32.9719C156.294 31.7421 157.33 29.4546 158.576 27.9051C160.329 25.7037 162.747 26.0112 162.747 26.0112C162.747 26.0112 164.018 23.0842 160.773 23.1457C158.145 23.1949 151.481 29.3071 147.73 35.4684C144.287 41.1256 139.067 50.7796 144.299 52.8949C149.099 54.8257 158.243 44.0156 162.488 38.3462C166.721 32.6891 176.358 19.8252 184.453 19.3087C187.242 19.1242 188.896 21.6576 188.896 21.6576L189.834 20.1818H197.916C197.916 20.1818 182.664 45.5406 181.479 47.4591C180.542 48.9595 179.295 52.3415 182.75 50.4476C186.218 48.5537 193.375 39.3546 193.375 39.3546ZM188.97 80C182.849 75.7079 175.396 73.814 168.621 74.0846C161.772 74.3552 158.7 79.4466 158.7 79.4466C155.615 74.0723 149.507 70.7764 140.066 70.8502C124.814 71.0224 109.685 78.0323 97.7156 78.02C86.2147 78.02 77.8482 70.8133 78.1197 58.0355C78.6133 35.6283 97.6292 15.4348 111.833 6.35873C120.002 1.13202 126.838 -0.405241 131.305 0.0866847C134.563 0.443331 138.487 4.20656 136.007 9.74072C132.366 17.8452 127.344 17.1688 127.541 13.2949C127.652 10.7738 129.331 9.19961 130.589 8.32644C131.391 7.77302 132.811 7.61315 133.551 7.60085C134.267 6.99824 134.822 2.57091 128.973 4.02209C123.124 5.47327 116.078 11.2042 109.365 18.5831C102.652 25.962 92.1996 39.945 89.6082 54.6166C88.3989 61.4175 89.201 73.8263 105.379 73.6911C119.088 73.5804 139.338 64.5904 157.947 64.7503C165.166 64.8118 171.447 66.7549 176.346 69.7679C181.159 72.7195 186.921 77.0238 188.97 79.9754" fill="black"/>
<path d="M492.998 30.3828H488.345L483.274 39.4096L478.14 30.3705H473.377L481.127 43.2835V49.6909H485.347V43.1975L492.998 30.3828ZM465.924 30.3705V43.4557L456.644 30.3582H452.263V49.6663H456.373V36.3597L465.788 49.6663H470.033V30.3582H465.924V30.3705ZM435.382 41.7217L438.27 34.0845L441.145 41.734H435.382V41.7217ZM444.119 49.6663H448.561L440.874 30.3582H435.678L427.966 49.6663H432.384L434 45.3742H442.502L444.119 49.6663ZM421.006 38.8685H415.379V34.0599H421.006C421.845 34.0599 422.499 34.269 422.968 34.6748C423.437 35.0807 423.659 35.671 423.659 36.4458C423.659 37.2206 423.425 37.8109 422.956 38.229C422.499 38.6594 421.833 38.8685 420.994 38.8685M421.105 30.3459H411.146V49.654H415.379V42.6072H421.117C422.586 42.6072 423.844 42.3366 424.856 41.8078C425.88 41.2667 426.645 40.5411 427.164 39.6064C427.694 38.684 427.941 37.6387 427.941 36.4704C427.941 35.3021 427.682 34.2567 427.164 33.3221C426.645 32.3997 425.88 31.6618 424.856 31.1453C423.832 30.6165 422.586 30.3582 421.117 30.3582M405.532 30.3459H399.855L394.167 43.7509L388.367 30.3336H382.69V49.6417H386.775V35.8309L392.661 49.3711H395.487L401.435 35.4742V49.6417H405.519V30.3336L405.532 30.3459ZM367.734 46.1736C366.587 46.1736 365.563 45.9153 364.649 45.3865C363.736 44.8577 363.033 44.1198 362.515 43.1852C362.009 42.2382 361.749 41.1806 361.749 39.9754C361.749 38.7701 362.009 37.7002 362.527 36.7655C363.033 35.8186 363.749 35.093 364.662 34.5642C365.563 34.0353 366.587 33.7771 367.747 33.7771C368.907 33.7771 369.919 34.0476 370.832 34.5642C371.745 35.093 372.448 35.8186 372.954 36.7655C373.46 37.7002 373.719 38.7701 373.719 39.9754C373.719 41.1806 373.46 42.2382 372.954 43.1852C372.448 44.1321 371.733 44.8577 370.819 45.3865C369.919 45.9276 368.894 46.1736 367.734 46.1736ZM367.734 49.986C369.733 49.986 371.51 49.5556 373.078 48.7193C374.657 47.8708 375.879 46.6901 376.767 45.1652C377.656 43.6525 378.1 41.9185 378.1 39.9999C378.1 38.0814 377.656 36.3474 376.767 34.8224C375.879 33.3098 374.657 32.1168 373.078 31.2683C371.51 30.4197 369.721 29.9893 367.734 29.9893C365.748 29.9893 363.958 30.4197 362.391 31.256C360.812 32.1045 359.59 33.2975 358.702 34.8101C357.813 36.3351 357.369 38.0568 357.369 39.9876C357.369 41.9185 357.813 43.6402 358.702 45.1652C359.59 46.6901 360.812 47.8708 362.379 48.7193C363.958 49.5679 365.735 49.986 367.722 49.986M347.373 49.986C348.953 49.986 350.421 49.7278 351.803 49.2236C353.173 48.7193 354.296 47.9568 355.185 46.9361L352.544 44.0706C351.137 45.4849 349.459 46.1859 347.46 46.1859C346.201 46.1859 345.066 45.9154 344.054 45.3619C343.03 44.8208 342.252 44.0829 341.685 43.136C341.117 42.189 340.833 41.1437 340.833 39.9876C340.833 38.8316 341.117 37.774 341.697 36.8393C342.265 35.8924 343.054 35.1545 344.054 34.6134C345.053 34.0722 346.164 33.7894 347.41 33.7894C348.361 33.7894 349.249 33.9739 350.064 34.3182C350.878 34.6748 351.668 35.2283 352.42 35.9785L355.061 33.0515C354.197 32.0553 353.099 31.2929 351.742 30.7763C350.384 30.2475 348.904 29.9893 347.312 29.9893C345.251 29.9893 343.388 30.4197 341.746 31.2929C340.093 32.1537 338.797 33.359 337.872 34.8839C336.934 36.4212 336.465 38.1183 336.465 39.9999C336.465 41.8816 336.934 43.5787 337.859 45.116C338.785 46.6409 340.08 47.8462 341.746 48.707C343.4 49.5802 345.288 50.0106 347.386 50.0106" fill="black"/>
</svg>
